<svg xmlns="http://www.w3.org/2000/svg" xmlns:xlink="http://www.w3.org/1999/xlink" width="500" zoomAndPan="magnify" viewBox="0 0 375 374.999991" height="500" preserveAspectRatio="xMidYMid meet" version="1.0"><defs><g/><linearGradient x1="250" gradientTransform="matrix(0.75, 0, 0, 0.75, 0.0000045, 0)" y1="0" x2="250" gradientUnits="userSpaceOnUse" y2="499.999979" id="bda6eeb6ea"><stop stop-opacity="1" stop-color="rgb(99.609375%, 100%, 100%)" offset="0"/><stop stop-opacity="1" stop-color="rgb(99.433899%, 99.821472%, 99.821472%)" offset="0.015625"/><stop stop-opacity="1" stop-color="rgb(99.084473%, 99.465942%, 99.465942%)" offset="0.03125"/><stop stop-opacity="1" stop-color="rgb(98.735046%, 99.110413%, 99.110413%)" offset="0.046875"/><stop stop-opacity="1" stop-color="rgb(98.38562%, 98.754883%, 98.754883%)" offset="0.0625"/><stop stop-opacity="1" stop-color="rgb(98.036194%, 98.399353%, 98.399353%)" offset="0.078125"/><stop stop-opacity="1" stop-color="rgb(97.686768%, 98.043823%, 98.043823%)" offset="0.09375"/><stop stop-opacity="1" stop-color="rgb(97.337341%, 97.688293%, 97.688293%)" offset="0.109375"/><stop stop-opacity="1" stop-color="rgb(96.987915%, 97.332764%, 97.332764%)" offset="0.125"/><stop stop-opacity="1" stop-color="rgb(96.638489%, 96.977234%, 96.977234%)" offset="0.140625"/><stop stop-opacity="1" stop-color="rgb(96.289062%, 96.621704%, 96.621704%)" offset="0.15625"/><stop stop-opacity="1" stop-color="rgb(95.939636%, 96.266174%, 96.266174%)" offset="0.171875"/><stop stop-opacity="1" stop-color="rgb(95.59021%, 95.910645%, 95.910645%)" offset="0.1875"/><stop stop-opacity="1" stop-color="rgb(95.240784%, 95.555115%, 95.555115%)" offset="0.203125"/><stop stop-opacity="1" stop-color="rgb(94.891357%, 95.199585%, 95.199585%)" offset="0.21875"/><stop stop-opacity="1" stop-color="rgb(94.541931%, 94.844055%, 94.844055%)" offset="0.234375"/><stop stop-opacity="1" stop-color="rgb(94.192505%, 94.488525%, 94.488525%)" offset="0.25"/><stop stop-opacity="1" stop-color="rgb(93.843079%, 94.132996%, 94.132996%)" offset="0.265625"/><stop stop-opacity="1" stop-color="rgb(93.495178%, 93.777466%, 93.777466%)" offset="0.28125"/><stop stop-opacity="1" stop-color="rgb(93.145752%, 93.421936%, 93.421936%)" offset="0.296875"/><stop stop-opacity="1" stop-color="rgb(92.796326%, 93.066406%, 93.066406%)" offset="0.3125"/><stop stop-opacity="1" stop-color="rgb(92.446899%, 92.710876%, 92.710876%)" offset="0.328125"/><stop stop-opacity="1" stop-color="rgb(92.097473%, 92.355347%, 92.355347%)" offset="0.34375"/><stop stop-opacity="1" stop-color="rgb(91.748047%, 91.999817%, 91.999817%)" offset="0.359375"/><stop stop-opacity="1" stop-color="rgb(91.398621%, 91.644287%, 91.644287%)" offset="0.375"/><stop stop-opacity="1" stop-color="rgb(91.049194%, 91.290283%, 91.290283%)" offset="0.390625"/><stop stop-opacity="1" stop-color="rgb(90.699768%, 90.934753%, 90.934753%)" offset="0.40625"/><stop stop-opacity="1" stop-color="rgb(90.350342%, 90.579224%, 90.579224%)" offset="0.421875"/><stop stop-opacity="1" stop-color="rgb(90.000916%, 90.223694%, 90.223694%)" offset="0.4375"/><stop stop-opacity="1" stop-color="rgb(89.651489%, 89.868164%, 89.868164%)" offset="0.453125"/><stop stop-opacity="1" stop-color="rgb(89.302063%, 89.512634%, 89.512634%)" offset="0.46875"/><stop stop-opacity="1" stop-color="rgb(88.952637%, 89.157104%, 89.157104%)" offset="0.484375"/><stop stop-opacity="1" stop-color="rgb(88.60321%, 88.801575%, 88.801575%)" offset="0.5"/><stop stop-opacity="1" stop-color="rgb(88.253784%, 88.446045%, 88.446045%)" offset="0.515625"/><stop stop-opacity="1" stop-color="rgb(87.904358%, 88.090515%, 88.090515%)" offset="0.53125"/><stop stop-opacity="1" stop-color="rgb(87.554932%, 87.734985%, 87.734985%)" offset="0.546875"/><stop stop-opacity="1" stop-color="rgb(87.205505%, 87.379456%, 87.379456%)" offset="0.5625"/><stop stop-opacity="1" stop-color="rgb(86.856079%, 87.023926%, 87.023926%)" offset="0.578125"/><stop stop-opacity="1" stop-color="rgb(86.506653%, 86.668396%, 86.668396%)" offset="0.59375"/><stop stop-opacity="1" stop-color="rgb(86.157227%, 86.312866%, 86.312866%)" offset="0.609375"/><stop stop-opacity="1" stop-color="rgb(85.8078%, 85.957336%, 85.957336%)" offset="0.625"/><stop stop-opacity="1" stop-color="rgb(85.458374%, 85.601807%, 85.601807%)" offset="0.640625"/><stop stop-opacity="1" stop-color="rgb(85.108948%, 85.246277%, 85.246277%)" offset="0.65625"/><stop stop-opacity="1" stop-color="rgb(84.759521%, 84.890747%, 84.890747%)" offset="0.671875"/><stop stop-opacity="1" stop-color="rgb(84.410095%, 84.535217%, 84.535217%)" offset="0.6875"/><stop stop-opacity="1" stop-color="rgb(84.060669%, 84.179688%, 84.179688%)" offset="0.703125"/><stop stop-opacity="1" stop-color="rgb(83.711243%, 83.824158%, 83.824158%)" offset="0.71875"/><stop stop-opacity="1" stop-color="rgb(83.361816%, 83.468628%, 83.468628%)" offset="0.734375"/><stop stop-opacity="1" stop-color="rgb(83.013916%, 83.113098%, 83.113098%)" offset="0.75"/><stop stop-opacity="1" stop-color="rgb(82.66449%, 82.757568%, 82.757568%)" offset="0.765625"/><stop stop-opacity="1" stop-color="rgb(82.315063%, 82.403564%, 82.403564%)" offset="0.78125"/><stop stop-opacity="1" stop-color="rgb(81.965637%, 82.048035%, 82.048035%)" offset="0.796875"/><stop stop-opacity="1" stop-color="rgb(81.616211%, 81.692505%, 81.692505%)" offset="0.8125"/><stop stop-opacity="1" stop-color="rgb(81.266785%, 81.336975%, 81.336975%)" offset="0.828125"/><stop stop-opacity="1" stop-color="rgb(80.917358%, 80.981445%, 80.981445%)" offset="0.84375"/><stop stop-opacity="1" stop-color="rgb(80.567932%, 80.625916%, 80.625916%)" offset="0.859375"/><stop stop-opacity="1" stop-color="rgb(80.218506%, 80.270386%, 80.270386%)" offset="0.875"/><stop stop-opacity="1" stop-color="rgb(79.86908%, 79.914856%, 79.914856%)" offset="0.890625"/><stop stop-opacity="1" stop-color="rgb(79.519653%, 79.559326%, 79.559326%)" offset="0.90625"/><stop stop-opacity="1" stop-color="rgb(79.170227%, 79.203796%, 79.203796%)" offset="0.921875"/><stop stop-opacity="1" stop-color="rgb(78.820801%, 78.848267%, 78.848267%)" offset="0.9375"/><stop stop-opacity="1" stop-color="rgb(78.471375%, 78.492737%, 78.492737%)" offset="0.953125"/><stop stop-opacity="1" stop-color="rgb(78.121948%, 78.137207%, 78.137207%)" offset="0.96875"/><stop stop-opacity="1" stop-color="rgb(77.772522%, 77.781677%, 77.781677%)" offset="0.984375"/><stop stop-opacity="1" stop-color="rgb(77.423096%, 77.426147%, 77.426147%)" offset="1"/></linearGradient><clipPath id="20f5064b85"><path d="M 131.242188 74.933594 L 243.742188 74.933594 L 243.742188 212.167969 L 131.242188 212.167969 Z M 131.242188 74.933594 " clip-rule="nonzero"/></clipPath></defs><rect x="-37.5" width="450" fill="#ffffff" y="-37.499999" height="449.999989" fill-opacity="1"/><rect x="-37.5" fill="url(#bda6eeb6ea)" width="450" y="-37.499999" height="449.999989"/><g fill="#000a39" fill-opacity="1"><g transform="translate(107.686346, 273.217278)"><g><path d="M 7.421875 0 L 0.078125 0 L 10.171875 -29.515625 L 17.6875 -29.515625 L 27.78125 0 L 20.421875 0 L 18.84375 -5.296875 L 9.015625 -5.296875 Z M 13.921875 -21.8125 L 10.828125 -11.296875 L 17.015625 -11.296875 Z M 13.921875 -21.8125 "/></g></g></g><g fill="#000a39" fill-opacity="1"><g transform="translate(143.278373, 273.217278)"><g><path d="M 14.578125 0.65625 C 11.535156 0.65625 9.09375 0.15625 7.25 -0.84375 C 5.40625 -1.851562 4.070312 -3.238281 3.25 -5 C 2.425781 -6.769531 2.015625 -8.78125 2.015625 -11.03125 L 2.015625 -29.515625 L 8.96875 -29.515625 L 8.96875 -11.03125 C 8.96875 -10.019531 9.125 -9.101562 9.4375 -8.28125 C 9.75 -7.457031 10.3125 -6.789062 11.125 -6.28125 C 11.9375 -5.78125 13.085938 -5.53125 14.578125 -5.53125 C 16.078125 -5.53125 17.226562 -5.78125 18.03125 -6.28125 C 18.832031 -6.789062 19.382812 -7.457031 19.6875 -8.28125 C 20 -9.101562 20.15625 -10.019531 20.15625 -11.03125 L 20.15625 -29.515625 L 27.125 -29.515625 L 27.125 -11.03125 C 27.125 -8.78125 26.707031 -6.769531 25.875 -5 C 25.050781 -3.238281 23.722656 -1.851562 21.890625 -0.84375 C 20.066406 0.15625 17.628906 0.65625 14.578125 0.65625 Z M 14.578125 0.65625 "/></g></g></g><g fill="#000a39" fill-opacity="1"><g transform="translate(180.185635, 273.217278)"><g><path d="M 11.265625 0 L 2.328125 0 L 2.328125 -29.515625 L 11.265625 -29.515625 C 16.285156 -29.515625 20.132812 -28.25 22.8125 -25.71875 C 25.5 -23.195312 26.84375 -19.5625 26.84375 -14.8125 C 26.84375 -10.039062 25.5 -6.378906 22.8125 -3.828125 C 20.132812 -1.273438 16.285156 0 11.265625 0 Z M 9.25 -23.328125 L 9.25 -6.1875 L 11.1875 -6.1875 C 14.019531 -6.1875 16.179688 -6.875 17.671875 -8.25 C 19.171875 -9.632812 19.921875 -11.820312 19.921875 -14.8125 C 19.921875 -17.625 19.132812 -19.742188 17.5625 -21.171875 C 15.988281 -22.609375 13.863281 -23.328125 11.1875 -23.328125 Z M 9.25 -23.328125 "/></g></g></g><g fill="#000a39" fill-opacity="1"><g transform="translate(216.00976, 273.217278)"><g><path d="M 9.25 0 L 2.328125 0 L 2.328125 -29.515625 L 9.25 -29.515625 Z M 9.25 0 "/></g></g></g><g fill="#000a39" fill-opacity="1"><g transform="translate(235.354703, 273.217278)"><g><path d="M 15.984375 0.65625 C 13.453125 0.65625 11.253906 0.242188 9.390625 -0.578125 C 7.535156 -1.398438 6.007812 -2.523438 4.8125 -3.953125 C 3.613281 -5.390625 2.71875 -7.035156 2.125 -8.890625 C 1.53125 -10.753906 1.234375 -12.71875 1.234375 -14.78125 C 1.234375 -16.84375 1.53125 -18.796875 2.125 -20.640625 C 2.71875 -22.484375 3.613281 -24.117188 4.8125 -25.546875 C 6.007812 -26.984375 7.535156 -28.109375 9.390625 -28.921875 C 11.253906 -29.734375 13.453125 -30.140625 15.984375 -30.140625 C 18.484375 -30.140625 20.65625 -29.734375 22.5 -28.921875 C 24.34375 -28.109375 25.867188 -26.984375 27.078125 -25.546875 C 28.296875 -24.117188 29.195312 -22.484375 29.78125 -20.640625 C 30.375 -18.796875 30.671875 -16.84375 30.671875 -14.78125 C 30.671875 -12.71875 30.375 -10.753906 29.78125 -8.890625 C 29.195312 -7.035156 28.296875 -5.390625 27.078125 -3.953125 C 25.867188 -2.523438 24.34375 -1.398438 22.5 -0.578125 C 20.65625 0.242188 18.484375 0.65625 15.984375 0.65625 Z M 15.984375 -5.53125 C 18.296875 -5.53125 20.101562 -6.367188 21.40625 -8.046875 C 22.71875 -9.722656 23.375 -11.96875 23.375 -14.78125 C 23.375 -17.5625 22.71875 -19.785156 21.40625 -21.453125 C 20.101562 -23.117188 18.296875 -23.953125 15.984375 -23.953125 C 13.660156 -23.953125 11.835938 -23.117188 10.515625 -21.453125 C 9.203125 -19.785156 8.546875 -17.5625 8.546875 -14.78125 C 8.546875 -11.96875 9.203125 -9.722656 10.515625 -8.046875 C 11.835938 -6.367188 13.660156 -5.53125 15.984375 -5.53125 Z M 15.984375 -5.53125 "/></g></g></g><g fill="#f02d36" fill-opacity="1"><g transform="translate(165.521982, 297.994903)"><g><path d="M 3.75 0.125 C 3.175781 0.125 2.675781 0.0234375 2.25 -0.171875 C 1.832031 -0.367188 1.484375 -0.632812 1.203125 -0.96875 C 0.929688 -1.3125 0.726562 -1.703125 0.59375 -2.140625 C 0.457031 -2.585938 0.390625 -3.050781 0.390625 -3.53125 C 0.390625 -4.007812 0.457031 -4.46875 0.59375 -4.90625 C 0.726562 -5.34375 0.929688 -5.726562 1.203125 -6.0625 C 1.484375 -6.40625 1.832031 -6.671875 2.25 -6.859375 C 2.675781 -7.054688 3.175781 -7.15625 3.75 -7.15625 C 4.3125 -7.15625 4.800781 -7.0625 5.21875 -6.875 C 5.632812 -6.6875 5.96875 -6.425781 6.21875 -6.09375 C 6.46875 -5.757812 6.625 -5.367188 6.6875 -4.921875 L 5.40625 -4.921875 C 5.332031 -5.304688 5.144531 -5.597656 4.84375 -5.796875 C 4.539062 -6.003906 4.171875 -6.109375 3.734375 -6.109375 C 3.265625 -6.109375 2.875 -6 2.5625 -5.78125 C 2.25 -5.5625 2.007812 -5.253906 1.84375 -4.859375 C 1.6875 -4.472656 1.609375 -4.03125 1.609375 -3.53125 C 1.609375 -3.019531 1.6875 -2.566406 1.84375 -2.171875 C 2.007812 -1.785156 2.25 -1.476562 2.5625 -1.25 C 2.875 -1.03125 3.265625 -0.921875 3.734375 -0.921875 C 4.171875 -0.921875 4.539062 -1.03125 4.84375 -1.25 C 5.144531 -1.46875 5.332031 -1.796875 5.40625 -2.234375 L 6.6875 -2.234375 C 6.582031 -1.515625 6.273438 -0.941406 5.765625 -0.515625 C 5.265625 -0.0859375 4.59375 0.125 3.75 0.125 Z M 3.75 0.125 "/></g></g></g><g fill="#f02d36" fill-opacity="1"><g transform="translate(179.934098, 297.994903)"><g><path d="M 1.828125 0 L 0.65625 0 L 0.65625 -7.046875 L 1.828125 -7.046875 Z M 1.828125 0 "/></g></g></g><g fill="#f02d36" fill-opacity="1"><g transform="translate(189.830639, 297.994903)"><g><path d="M 3.5 0 L 2.328125 0 L 2.328125 -6 L 0.109375 -6 L 0.109375 -7.046875 L 5.734375 -7.046875 L 5.734375 -6 L 3.5 -6 Z M 3.5 0 "/></g></g></g><g fill="#f02d36" fill-opacity="1"><g transform="translate(203.060764, 297.994903)"><g><path d="M 3.8125 0 L 2.578125 0 L 2.578125 -2.734375 L -0.015625 -7.046875 L 1.359375 -7.046875 L 3.1875 -3.875 L 5.03125 -7.046875 L 6.390625 -7.046875 L 3.8125 -2.734375 Z M 3.8125 0 "/></g></g></g><g clip-path="url(#20f5064b85)"><path fill="#f02d36" d="M 187.5 74.917969 C 218.527344 74.917969 243.726562 100.113281 243.726562 131.144531 C 243.726562 165.007812 210.164062 191.664062 187.5 212.460938 C 164.832031 191.636719 131.269531 165.007812 131.269531 131.144531 C 131.269531 100.113281 156.359375 74.917969 187.5 74.917969 Z M 187.5 90.625 C 198.722656 90.625 208.816406 95.21875 216.164062 102.5625 C 223.507812 109.796875 227.992188 120.003906 227.992188 131.144531 C 227.992188 142.367188 223.507812 152.464844 216.164062 159.808594 C 208.816406 167.152344 198.722656 171.746094 187.5 171.746094 C 176.273438 171.746094 166.179688 167.152344 158.835938 159.808594 C 151.488281 152.464844 147.007812 142.367188 147.007812 131.144531 C 147.007812 120.03125 151.488281 109.824219 158.835938 102.5625 C 166.179688 95.21875 176.273438 90.625 187.5 90.625 Z M 191.460938 166.4375 L 191.460938 119.8125 L 183.511719 119.8125 L 183.511719 166.4375 C 184.832031 166.628906 186.152344 166.628906 187.5 166.628906 C 188.820312 166.65625 190.140625 166.65625 191.460938 166.4375 Z M 196.464844 119.8125 L 196.464844 130.125 L 210.769531 130.125 L 210.769531 157.992188 C 211.375 157.46875 212.007812 156.863281 212.613281 156.257812 C 219.050781 149.933594 223.011719 141.046875 223.011719 131.171875 C 223.011719 121.378906 219.023438 112.492188 212.613281 106.082031 C 206.203125 99.675781 197.292969 95.628906 187.5 95.628906 C 177.707031 95.628906 168.820312 99.621094 162.410156 106.027344 C 156 112.4375 152.011719 121.324219 152.011719 131.117188 C 152.011719 141.019531 156 149.878906 162.410156 156.203125 C 163.234375 157.113281 164.144531 157.9375 165.050781 158.652344 L 165.050781 124.101562 L 178.53125 124.101562 L 178.53125 114.804688 L 196.464844 114.804688 Z M 196.464844 135.105469 L 196.464844 165.503906 C 199.738281 164.675781 202.902344 163.355469 205.765625 161.625 L 205.765625 135.105469 Z M 170.03125 162.144531 C 172.671875 163.578125 175.449219 164.703125 178.503906 165.503906 L 178.503906 129.109375 L 170.03125 129.109375 Z M 187.5 85.425781 C 212.804688 85.425781 233.21875 105.945312 233.21875 131.144531 C 233.21875 156.453125 212.804688 176.945312 187.5 176.945312 C 162.191406 176.945312 141.78125 156.453125 141.78125 131.144531 C 141.78125 105.945312 162.191406 85.425781 187.5 85.425781 Z M 187.5 85.425781 " fill-opacity="1" fill-rule="nonzero"/></g><path fill="#ffffff" d="M 158.808594 159.808594 C 151.460938 152.464844 146.980469 142.367188 146.980469 131.144531 C 146.980469 120.03125 151.460938 109.824219 158.808594 102.5625 C 166.152344 95.21875 176.246094 90.625 187.472656 90.625 C 198.695312 90.625 208.789062 95.21875 216.136719 102.5625 C 223.480469 109.796875 227.964844 120.003906 227.964844 131.144531 C 227.964844 142.367188 223.480469 152.464844 216.136719 159.808594 C 208.789062 167.152344 198.722656 171.746094 187.5 171.746094 C 176.273438 171.746094 166.179688 167.152344 158.808594 159.808594 Z M 233.191406 131.144531 C 233.191406 105.945312 212.777344 85.425781 187.472656 85.425781 C 162.164062 85.425781 141.78125 105.945312 141.78125 131.144531 C 141.78125 156.453125 162.191406 176.945312 187.5 176.945312 C 212.804688 176.945312 233.191406 156.453125 233.191406 131.144531 Z M 233.191406 131.144531 " fill-opacity="1" fill-rule="nonzero"/><path fill="#ffffff" d="M 151.984375 131.144531 C 151.984375 141.046875 155.972656 149.90625 162.382812 156.230469 C 163.207031 157.140625 164.117188 157.964844 165.023438 158.679688 L 165.023438 124.101562 L 178.503906 124.101562 L 178.503906 114.804688 L 196.464844 114.804688 L 196.464844 130.125 L 210.769531 130.125 L 210.769531 157.992188 C 211.375 157.46875 212.007812 156.863281 212.613281 156.257812 C 219.050781 149.933594 223.011719 141.046875 223.011719 131.171875 C 223.011719 121.378906 219.023438 112.492188 212.613281 106.082031 C 206.203125 99.675781 197.292969 95.628906 187.5 95.628906 C 177.707031 95.628906 168.820312 99.621094 162.410156 106.027344 C 156 112.4375 151.984375 121.351562 151.984375 131.144531 Z M 151.984375 131.144531 " fill-opacity="1" fill-rule="nonzero"/><path fill="#ffffff" d="M 170.03125 129.109375 L 170.03125 162.175781 C 172.671875 163.605469 175.449219 164.730469 178.503906 165.53125 L 178.503906 129.109375 Z M 170.03125 129.109375 " fill-opacity="1" fill-rule="nonzero"/><path fill="#ffffff" d="M 183.511719 119.8125 L 183.511719 166.4375 C 184.832031 166.628906 186.152344 166.628906 187.5 166.628906 C 188.820312 166.628906 190.140625 166.628906 191.488281 166.4375 L 191.488281 119.8125 Z M 183.511719 119.8125 " fill-opacity="1" fill-rule="nonzero"/><path fill="#ffffff" d="M 196.464844 135.105469 L 196.464844 165.503906 C 199.738281 164.675781 202.902344 163.355469 205.765625 161.625 L 205.765625 135.105469 Z M 196.464844 135.105469 " fill-opacity="1" fill-rule="nonzero"/></svg>